<?xml version="1.0" encoding="utf-8" standalone="no"?>
<!DOCTYPE svg PUBLIC "-//W3C//DTD SVG 1.1//EN"
  "http://www.w3.org/Graphics/SVG/1.1/DTD/svg11.dtd">
<svg xmlns:xlink="http://www.w3.org/1999/xlink" width="460.8pt" height="345.6pt" viewBox="0 0 460.8 345.6" xmlns="http://www.w3.org/2000/svg" version="1.1">
 <metadata>
  <rdf:RDF xmlns:dc="http://purl.org/dc/elements/1.1/" xmlns:cc="http://creativecommons.org/ns#" xmlns:rdf="http://www.w3.org/1999/02/22-rdf-syntax-ns#">
   <cc:Work>
    <dc:type rdf:resource="http://purl.org/dc/dcmitype/StillImage"/>
    <dc:date>2024-03-13T14:43:13.803746</dc:date>
    <dc:format>image/svg+xml</dc:format>
    <dc:creator>
     <cc:Agent>
      <dc:title>Matplotlib v3.7.3, https://matplotlib.org/</dc:title>
     </cc:Agent>
    </dc:creator>
   </cc:Work>
  </rdf:RDF>
 </metadata>
 <defs>
  <style type="text/css">*{stroke-linejoin: round; stroke-linecap: butt}</style>
 </defs>
 <g id="figure_1">
  <g id="patch_1">
   <path d="M 0 345.6 
L 460.8 345.6 
L 460.8 0 
L 0 0 
L 0 345.6 
z
" style="fill: none"/>
  </g>
  <g id="axes_1">
   <g id="PathCollection_1">
    <path d="M 241.570909 41.472 
L 241.570909 44.16 
L 241.570909 46.848 
L 241.570909 49.536 
L 241.570909 52.224 
L 241.570909 54.912 
L 241.570909 57.6 
L 241.570909 60.288 
L 241.570909 62.976 
L 241.570909 65.664 
L 241.570909 68.352 
L 241.570909 71.04 
L 241.570909 73.728 
L 241.570909 76.416 
L 241.570909 79.104 
L 241.570909 81.792 
L 241.570909 81.792 
L 237.963636 84.48 
L 237.963636 87.168 
L 237.963636 89.856 
L 237.963636 92.544 
L 237.963636 95.232 
L 237.963636 97.92 
L 237.963636 100.608 
L 237.963636 103.296 
L 237.963636 105.984 
L 237.963636 108.672 
L 237.963636 111.36 
L 237.963636 114.048 
L 237.963636 116.736 
L 237.963636 119.424 
L 237.963636 122.112 
L 237.963636 124.8 
L 237.963636 127.488 
L 237.963636 130.176 
L 237.963636 132.864 
L 237.963636 135.552 
L 237.963636 135.552 
L 234.356364 138.24 
L 234.356364 140.928 
L 234.356364 143.616 
L 234.356364 146.304 
L 234.356364 148.992 
L 234.356364 151.68 
L 234.356364 154.368 
L 234.356364 157.056 
L 234.356364 159.744 
L 234.356364 162.432 
L 234.356364 165.12 
L 234.356364 167.808 
L 234.356364 170.496 
L 234.356364 173.184 
L 234.356364 175.872 
L 234.356364 178.56 
L 234.356364 181.248 
L 234.356364 183.936 
L 234.356364 186.624 
L 234.356364 189.312 
L 234.356364 192 
L 234.356364 192 
L 230.749091 194.688 
L 230.749091 197.376 
L 230.749091 200.064 
L 230.749091 202.752 
L 230.749091 205.44 
L 230.749091 208.128 
L 230.749091 210.816 
L 230.749091 213.504 
L 230.749091 216.192 
L 230.749091 218.88 
L 230.749091 221.568 
L 230.749091 224.256 
L 230.749091 226.944 
L 230.749091 229.632 
L 230.749091 232.32 
L 230.749091 235.008 
L 230.749091 237.696 
L 230.749091 240.384 
L 230.749091 243.072 
L 230.749091 245.76 
L 230.749091 248.448 
L 230.749091 248.448 
L 227.141818 251.136 
L 227.141818 253.824 
L 227.141818 256.512 
L 227.141818 259.2 
L 227.141818 261.888 
L 227.141818 264.576 
L 227.141818 267.264 
L 227.141818 269.952 
L 227.141818 272.64 
L 227.141818 275.328 
L 227.141818 278.016 
L 227.141818 280.704 
L 227.141818 283.392 
L 227.141818 286.08 
L 227.141818 288.768 
L 227.141818 291.456 
L 227.141818 294.144 
L 227.141818 296.832 
L 227.141818 299.52 
L 227.141818 302.208 
L 227.141818 302.208 
L 223.534545 304.896 
L 223.534545 307.584 
" clip-path="url(#p9ebacbfa66)" style="fill: none; stroke: #ff0000; stroke-width: 0.2"/>
   </g>
   <g id="PathCollection_2">
    <path d="M 242.112 41.472 
L 242.112 44.16 
L 242.112 46.848 
L 242.112 49.536 
L 242.112 52.224 
L 242.112 54.912 
L 242.112 57.6 
L 242.112 60.288 
L 242.112 62.976 
L 242.112 65.664 
L 242.112 68.352 
L 242.112 71.04 
L 242.112 73.728 
L 242.112 76.416 
L 242.112 79.104 
L 242.112 81.792 
L 241.570909 82.1952 
L 238.504727 84.48 
L 238.504727 87.168 
L 238.504727 89.856 
L 238.504727 92.544 
L 238.504727 95.232 
L 238.504727 97.92 
L 238.504727 100.608 
L 238.504727 103.296 
L 238.504727 105.984 
L 238.504727 108.672 
L 238.504727 111.36 
L 238.504727 114.048 
L 238.504727 116.736 
L 238.504727 119.424 
L 238.504727 122.112 
L 238.504727 124.8 
L 238.504727 127.488 
L 238.504727 130.176 
L 238.504727 132.864 
L 238.504727 135.552 
L 237.963636 135.9552 
L 234.897455 138.24 
L 234.897455 140.928 
L 234.897455 143.616 
L 234.897455 146.304 
L 234.897455 148.992 
L 234.897455 151.68 
L 234.897455 154.368 
L 234.897455 157.056 
L 234.897455 159.744 
L 234.897455 162.432 
L 234.897455 165.12 
L 234.897455 167.808 
L 234.897455 170.496 
L 234.897455 173.184 
L 234.897455 175.872 
L 234.897455 178.56 
L 234.897455 181.248 
L 234.897455 183.936 
L 234.897455 186.624 
L 234.897455 189.312 
L 234.897455 192 
L 234.356364 192.4032 
L 231.290182 194.688 
L 231.290182 197.376 
L 231.290182 200.064 
L 231.290182 202.752 
L 231.290182 205.44 
L 231.290182 208.128 
L 231.290182 210.816 
L 231.290182 213.504 
L 231.290182 216.192 
L 231.290182 218.88 
L 231.290182 221.568 
L 231.290182 224.256 
L 231.290182 226.944 
L 231.290182 229.632 
L 231.290182 232.32 
L 231.290182 235.008 
L 231.290182 237.696 
L 231.290182 240.384 
L 231.290182 243.072 
L 231.290182 245.76 
L 231.290182 248.448 
L 230.749091 248.8512 
L 227.682909 251.136 
L 227.682909 253.824 
L 227.682909 256.512 
L 227.682909 259.2 
L 227.682909 261.888 
L 227.682909 264.576 
L 227.682909 267.264 
L 227.682909 269.952 
L 227.682909 272.64 
L 227.682909 275.328 
L 227.682909 278.016 
L 227.682909 280.704 
L 227.682909 283.392 
L 227.682909 286.08 
L 227.682909 288.768 
L 227.682909 291.456 
L 227.682909 294.144 
L 227.682909 296.832 
L 227.682909 299.52 
L 227.682909 302.208 
L 227.141818 302.6112 
L 224.075636 304.896 
L 224.075636 307.584 
" clip-path="url(#p9ebacbfa66)" style="fill: none; stroke: #ff0000; stroke-width: 0.2"/>
   </g>
   <g id="PathCollection_3">
    <path d="M 242.653091 41.472 
L 242.653091 44.16 
L 242.653091 46.848 
L 242.653091 49.536 
L 242.653091 52.224 
L 242.653091 54.912 
L 242.653091 57.6 
L 242.653091 60.288 
L 242.653091 62.976 
L 242.653091 65.664 
L 242.653091 68.352 
L 242.653091 71.04 
L 242.653091 73.728 
L 242.653091 76.416 
L 242.653091 79.104 
L 242.653091 81.792 
L 241.570909 82.5984 
L 239.045818 84.48 
L 239.045818 87.168 
L 239.045818 89.856 
L 239.045818 92.544 
L 239.045818 95.232 
L 239.045818 97.92 
L 239.045818 100.608 
L 239.045818 103.296 
L 239.045818 105.984 
L 239.045818 108.672 
L 239.045818 111.36 
L 239.045818 114.048 
L 239.045818 116.736 
L 239.045818 119.424 
L 239.045818 122.112 
L 239.045818 124.8 
L 239.045818 127.488 
L 239.045818 130.176 
L 239.045818 132.864 
L 239.045818 135.552 
L 237.963636 136.3584 
L 235.438545 138.24 
L 235.438545 140.928 
L 235.438545 143.616 
L 235.438545 146.304 
L 235.438545 148.992 
L 235.438545 151.68 
L 235.438545 154.368 
L 235.438545 157.056 
L 235.438545 159.744 
L 235.438545 162.432 
L 235.438545 165.12 
L 235.438545 167.808 
L 235.438545 170.496 
L 235.438545 173.184 
L 235.438545 175.872 
L 235.438545 178.56 
L 235.438545 181.248 
L 235.438545 183.936 
L 235.438545 186.624 
L 235.438545 189.312 
L 235.438545 192 
L 234.356364 192.8064 
L 231.831273 194.688 
L 231.831273 197.376 
L 231.831273 200.064 
L 231.831273 202.752 
L 231.831273 205.44 
L 231.831273 208.128 
L 231.831273 210.816 
L 231.831273 213.504 
L 231.831273 216.192 
L 231.831273 218.88 
L 231.831273 221.568 
L 231.831273 224.256 
L 231.831273 226.944 
L 231.831273 229.632 
L 231.831273 232.32 
L 231.831273 235.008 
L 231.831273 237.696 
L 231.831273 240.384 
L 231.831273 243.072 
L 231.831273 245.76 
L 231.831273 248.448 
L 230.749091 249.2544 
L 228.224 251.136 
L 228.224 253.824 
L 228.224 256.512 
L 228.224 259.2 
L 228.224 261.888 
L 228.224 264.576 
L 228.224 267.264 
L 228.224 269.952 
L 228.224 272.64 
L 228.224 275.328 
L 228.224 278.016 
L 228.224 280.704 
L 228.224 283.392 
L 228.224 286.08 
L 228.224 288.768 
L 228.224 291.456 
L 228.224 294.144 
L 228.224 296.832 
L 228.224 299.52 
L 228.224 302.208 
L 227.141818 303.0144 
L 224.616727 304.896 
L 224.616727 307.584 
" clip-path="url(#p9ebacbfa66)" style="fill: none; stroke: #ff0000; stroke-width: 0.2"/>
   </g>
   <g id="PathCollection_4">
    <path d="M 243.194182 41.472 
L 243.194182 44.16 
L 243.194182 46.848 
L 243.194182 49.536 
L 243.194182 52.224 
L 243.194182 54.912 
L 243.194182 57.6 
L 243.194182 60.288 
L 243.194182 62.976 
L 243.194182 65.664 
L 243.194182 68.352 
L 243.194182 71.04 
L 243.194182 73.728 
L 243.194182 76.416 
L 243.194182 79.104 
L 243.194182 81.792 
L 241.570909 83.0016 
L 239.586909 84.48 
L 239.586909 87.168 
L 239.586909 89.856 
L 239.586909 92.544 
L 239.586909 95.232 
L 239.586909 97.92 
L 239.586909 100.608 
L 239.586909 103.296 
L 239.586909 105.984 
L 239.586909 108.672 
L 239.586909 111.36 
L 239.586909 114.048 
L 239.586909 116.736 
L 239.586909 119.424 
L 239.586909 122.112 
L 239.586909 124.8 
L 239.586909 127.488 
L 239.586909 130.176 
L 239.586909 132.864 
L 239.586909 135.552 
L 237.963636 136.7616 
L 235.979636 138.24 
L 235.979636 140.928 
L 235.979636 143.616 
L 235.979636 146.304 
L 235.979636 148.992 
L 235.979636 151.68 
L 235.979636 154.368 
L 235.979636 157.056 
L 235.979636 159.744 
L 235.979636 162.432 
L 235.979636 165.12 
L 235.979636 167.808 
L 235.979636 170.496 
L 235.979636 173.184 
L 235.979636 175.872 
L 235.979636 178.56 
L 235.979636 181.248 
L 235.979636 183.936 
L 235.979636 186.624 
L 235.979636 189.312 
L 235.979636 192 
L 234.356364 193.2096 
L 232.372364 194.688 
L 232.372364 197.376 
L 232.372364 200.064 
L 232.372364 202.752 
L 232.372364 205.44 
L 232.372364 208.128 
L 232.372364 210.816 
L 232.372364 213.504 
L 232.372364 216.192 
L 232.372364 218.88 
L 232.372364 221.568 
L 232.372364 224.256 
L 232.372364 226.944 
L 232.372364 229.632 
L 232.372364 232.32 
L 232.372364 235.008 
L 232.372364 237.696 
L 232.372364 240.384 
L 232.372364 243.072 
L 232.372364 245.76 
L 232.372364 248.448 
L 230.749091 249.6576 
L 228.765091 251.136 
L 228.765091 253.824 
L 228.765091 256.512 
L 228.765091 259.2 
L 228.765091 261.888 
L 228.765091 264.576 
L 228.765091 267.264 
L 228.765091 269.952 
L 228.765091 272.64 
L 228.765091 275.328 
L 228.765091 278.016 
L 228.765091 280.704 
L 228.765091 283.392 
L 228.765091 286.08 
L 228.765091 288.768 
L 228.765091 291.456 
L 228.765091 294.144 
L 228.765091 296.832 
L 228.765091 299.52 
L 228.765091 302.208 
L 227.141818 303.4176 
L 225.157818 304.896 
L 225.157818 307.584 
" clip-path="url(#p9ebacbfa66)" style="fill: none; stroke: #ff0000; stroke-width: 0.2"/>
   </g>
   <g id="PathCollection_5">
    <path d="M 243.735273 41.472 
L 243.735273 44.16 
L 243.735273 46.848 
L 243.735273 49.536 
L 243.735273 52.224 
L 243.735273 54.912 
L 243.735273 57.6 
L 243.735273 60.288 
L 243.735273 62.976 
L 243.735273 65.664 
L 243.735273 68.352 
L 243.735273 71.04 
L 243.735273 73.728 
L 243.735273 76.416 
L 243.735273 79.104 
L 243.735273 81.792 
L 241.570909 83.4048 
L 240.128 84.48 
L 240.128 87.168 
L 240.128 89.856 
L 240.128 92.544 
L 240.128 95.232 
L 240.128 97.92 
L 240.128 100.608 
L 240.128 103.296 
L 240.128 105.984 
L 240.128 108.672 
L 240.128 111.36 
L 240.128 114.048 
L 240.128 116.736 
L 240.128 119.424 
L 240.128 122.112 
L 240.128 124.8 
L 240.128 127.488 
L 240.128 130.176 
L 240.128 132.864 
L 240.128 135.552 
L 237.963636 137.1648 
L 236.520727 138.24 
L 236.520727 140.928 
L 236.520727 143.616 
L 236.520727 146.304 
L 236.520727 148.992 
L 236.520727 151.68 
L 236.520727 154.368 
L 236.520727 157.056 
L 236.520727 159.744 
L 236.520727 162.432 
L 236.520727 165.12 
L 236.520727 167.808 
L 236.520727 170.496 
L 236.520727 173.184 
L 236.520727 175.872 
L 236.520727 178.56 
L 236.520727 181.248 
L 236.520727 183.936 
L 236.520727 186.624 
L 236.520727 189.312 
L 236.520727 192 
L 234.356364 193.6128 
L 232.913455 194.688 
L 232.913455 197.376 
L 232.913455 200.064 
L 232.913455 202.752 
L 232.913455 205.44 
L 232.913455 208.128 
L 232.913455 210.816 
L 232.913455 213.504 
L 232.913455 216.192 
L 232.913455 218.88 
L 232.913455 221.568 
L 232.913455 224.256 
L 232.913455 226.944 
L 232.913455 229.632 
L 232.913455 232.32 
L 232.913455 235.008 
L 232.913455 237.696 
L 232.913455 240.384 
L 232.913455 243.072 
L 232.913455 245.76 
L 232.913455 248.448 
L 230.749091 250.0608 
L 229.306182 251.136 
L 229.306182 253.824 
L 229.306182 256.512 
L 229.306182 259.2 
L 229.306182 261.888 
L 229.306182 264.576 
L 229.306182 267.264 
L 229.306182 269.952 
L 229.306182 272.64 
L 229.306182 275.328 
L 229.306182 278.016 
L 229.306182 280.704 
L 229.306182 283.392 
L 229.306182 286.08 
L 229.306182 288.768 
L 229.306182 291.456 
L 229.306182 294.144 
L 229.306182 296.832 
L 229.306182 299.52 
L 229.306182 302.208 
L 227.141818 303.8208 
L 225.698909 304.896 
L 225.698909 307.584 
" clip-path="url(#p9ebacbfa66)" style="fill: none; stroke: #ff0000; stroke-width: 0.2"/>
   </g>
   <g id="PathCollection_6">
    <path d="M 244.276364 41.472 
L 244.276364 44.16 
L 244.276364 46.848 
L 244.276364 49.536 
L 244.276364 52.224 
L 244.276364 54.912 
L 244.276364 57.6 
L 244.276364 60.288 
L 244.276364 62.976 
L 244.276364 65.664 
L 244.276364 68.352 
L 244.276364 71.04 
L 244.276364 73.728 
L 244.276364 76.416 
L 244.276364 79.104 
L 244.276364 81.792 
L 241.570909 83.808 
L 240.669091 84.48 
L 240.669091 87.168 
L 240.669091 89.856 
L 240.669091 92.544 
L 240.669091 95.232 
L 240.669091 97.92 
L 240.669091 100.608 
L 240.669091 103.296 
L 240.669091 105.984 
L 240.669091 108.672 
L 240.669091 111.36 
L 240.669091 114.048 
L 240.669091 116.736 
L 240.669091 119.424 
L 240.669091 122.112 
L 240.669091 124.8 
L 240.669091 127.488 
L 240.669091 130.176 
L 240.669091 132.864 
L 240.669091 135.552 
L 237.963636 137.568 
L 237.061818 138.24 
L 237.061818 140.928 
L 237.061818 143.616 
L 237.061818 146.304 
L 237.061818 148.992 
L 237.061818 151.68 
L 237.061818 154.368 
L 237.061818 157.056 
L 237.061818 159.744 
L 237.061818 162.432 
L 237.061818 165.12 
L 237.061818 167.808 
L 237.061818 170.496 
L 237.061818 173.184 
L 237.061818 175.872 
L 237.061818 178.56 
L 237.061818 181.248 
L 237.061818 183.936 
L 237.061818 186.624 
L 237.061818 189.312 
L 237.061818 192 
L 234.356364 194.016 
L 233.454545 194.688 
L 233.454545 197.376 
L 233.454545 200.064 
L 233.454545 202.752 
L 233.454545 205.44 
L 233.454545 208.128 
L 233.454545 210.816 
L 233.454545 213.504 
L 233.454545 216.192 
L 233.454545 218.88 
L 233.454545 221.568 
L 233.454545 224.256 
L 233.454545 226.944 
L 233.454545 229.632 
L 233.454545 232.32 
L 233.454545 235.008 
L 233.454545 237.696 
L 233.454545 240.384 
L 233.454545 243.072 
L 233.454545 245.76 
L 233.454545 248.448 
L 230.749091 250.464 
L 229.847273 251.136 
L 229.847273 253.824 
L 229.847273 256.512 
L 229.847273 259.2 
L 229.847273 261.888 
L 229.847273 264.576 
L 229.847273 267.264 
L 229.847273 269.952 
L 229.847273 272.64 
L 229.847273 275.328 
L 229.847273 278.016 
L 229.847273 280.704 
L 229.847273 283.392 
L 229.847273 286.08 
L 229.847273 288.768 
L 229.847273 291.456 
L 229.847273 294.144 
L 229.847273 296.832 
L 229.847273 299.52 
L 229.847273 302.208 
L 227.141818 304.224 
L 226.24 304.896 
L 226.24 307.584 
" clip-path="url(#p9ebacbfa66)" style="fill: none; stroke: #ff0000; stroke-width: 0.2"/>
   </g>
   <g id="PathCollection_7">
    <path d="M 244.817455 41.472 
L 244.817455 44.16 
L 244.817455 46.848 
L 244.817455 49.536 
L 244.817455 52.224 
L 244.817455 54.912 
L 244.817455 57.6 
L 244.817455 60.288 
L 244.817455 62.976 
L 244.817455 65.664 
L 244.817455 68.352 
L 244.817455 71.04 
L 244.817455 73.728 
L 244.817455 76.416 
L 244.817455 79.104 
L 244.817455 81.792 
L 241.570909 84.2112 
L 241.210182 84.48 
L 241.210182 87.168 
L 241.210182 89.856 
L 241.210182 92.544 
L 241.210182 95.232 
L 241.210182 97.92 
L 241.210182 100.608 
L 241.210182 103.296 
L 241.210182 105.984 
L 241.210182 108.672 
L 241.210182 111.36 
L 241.210182 114.048 
L 241.210182 116.736 
L 241.210182 119.424 
L 241.210182 122.112 
L 241.210182 124.8 
L 241.210182 127.488 
L 241.210182 130.176 
L 241.210182 132.864 
L 241.210182 135.552 
L 237.963636 137.9712 
L 237.602909 138.24 
L 237.602909 140.928 
L 237.602909 143.616 
L 237.602909 146.304 
L 237.602909 148.992 
L 237.602909 151.68 
L 237.602909 154.368 
L 237.602909 157.056 
L 237.602909 159.744 
L 237.602909 162.432 
L 237.602909 165.12 
L 237.602909 167.808 
L 237.602909 170.496 
L 237.602909 173.184 
L 237.602909 175.872 
L 237.602909 178.56 
L 237.602909 181.248 
L 237.602909 183.936 
L 237.602909 186.624 
L 237.602909 189.312 
L 237.602909 192 
L 234.356364 194.4192 
L 233.995636 194.688 
L 233.995636 197.376 
L 233.995636 200.064 
L 233.995636 202.752 
L 233.995636 205.44 
L 233.995636 208.128 
L 233.995636 210.816 
L 233.995636 213.504 
L 233.995636 216.192 
L 233.995636 218.88 
L 233.995636 221.568 
L 233.995636 224.256 
L 233.995636 226.944 
L 233.995636 229.632 
L 233.995636 232.32 
L 233.995636 235.008 
L 233.995636 237.696 
L 233.995636 240.384 
L 233.995636 243.072 
L 233.995636 245.76 
L 233.995636 248.448 
L 230.749091 250.8672 
L 230.388364 251.136 
L 230.388364 253.824 
L 230.388364 256.512 
L 230.388364 259.2 
L 230.388364 261.888 
L 230.388364 264.576 
L 230.388364 267.264 
L 230.388364 269.952 
L 230.388364 272.64 
L 230.388364 275.328 
L 230.388364 278.016 
L 230.388364 280.704 
L 230.388364 283.392 
L 230.388364 286.08 
L 230.388364 288.768 
L 230.388364 291.456 
L 230.388364 294.144 
L 230.388364 296.832 
L 230.388364 299.52 
L 230.388364 302.208 
L 227.141818 304.6272 
L 226.781091 304.896 
L 226.781091 307.584 
" clip-path="url(#p9ebacbfa66)" style="fill: none; stroke: #ff0000; stroke-width: 0.2"/>
   </g>
   <g id="PathCollection_8"/>
  </g>
 </g>
 <defs>
  <clipPath id="p9ebacbfa66">
   <rect x="57.6" y="41.472" width="357.12" height="266.112"/>
  </clipPath>
 </defs>
</svg>
