<?xml version="1.0" encoding="utf-8" standalone="no"?>
<!DOCTYPE svg PUBLIC "-//W3C//DTD SVG 1.1//EN"
  "http://www.w3.org/Graphics/SVG/1.1/DTD/svg11.dtd">
<svg xmlns:xlink="http://www.w3.org/1999/xlink" width="460.8pt" height="345.6pt" viewBox="0 0 460.8 345.6" xmlns="http://www.w3.org/2000/svg" version="1.1">
 <metadata>
  <rdf:RDF xmlns:dc="http://purl.org/dc/elements/1.1/" xmlns:cc="http://creativecommons.org/ns#" xmlns:rdf="http://www.w3.org/1999/02/22-rdf-syntax-ns#">
   <cc:Work>
    <dc:type rdf:resource="http://purl.org/dc/dcmitype/StillImage"/>
    <dc:date>2024-03-13T14:46:01.132172</dc:date>
    <dc:format>image/svg+xml</dc:format>
    <dc:creator>
     <cc:Agent>
      <dc:title>Matplotlib v3.7.3, https://matplotlib.org/</dc:title>
     </cc:Agent>
    </dc:creator>
   </cc:Work>
  </rdf:RDF>
 </metadata>
 <defs>
  <style type="text/css">*{stroke-linejoin: round; stroke-linecap: butt}</style>
 </defs>
 <g id="figure_1">
  <g id="patch_1">
   <path d="M 0 345.6 
L 460.8 345.6 
L 460.8 0 
L 0 0 
L 0 345.6 
z
" style="fill: none"/>
  </g>
  <g id="axes_1">
   <g id="PathCollection_1">
    <path d="M 414.72 105.984 
L 407.505455 105.984 
L 403.898182 108.672 
L 403.898182 108.672 
L 396.683636 108.672 
L 393.076364 111.36 
L 393.076364 111.36 
L 385.861818 111.36 
L 382.254545 114.048 
L 382.254545 114.048 
L 375.04 114.048 
L 371.432727 116.736 
L 364.218182 116.736 
L 360.610909 119.424 
L 353.396364 119.424 
L 349.789091 122.112 
L 349.789091 122.112 
L 338.967273 122.112 
L 335.36 124.8 
L 335.36 124.8 
L 328.145455 124.8 
L 324.538182 127.488 
L 324.538182 127.488 
L 317.323636 127.488 
L 313.716364 130.176 
L 313.716364 130.176 
L 306.501818 130.176 
L 302.894545 132.864 
L 302.894545 132.864 
L 295.68 132.864 
L 292.072727 135.552 
L 284.858182 135.552 
L 281.250909 138.24 
L 274.036364 138.24 
L 270.429091 140.928 
L 270.429091 140.928 
L 263.214545 140.928 
L 259.607273 143.616 
L 252.392727 143.616 
L 248.785455 146.304 
L 241.570909 146.304 
L 237.963636 148.992 
L 237.963636 148.992 
L 227.141818 148.992 
L 223.534545 151.68 
L 223.534545 151.68 
L 216.32 151.68 
L 212.712727 154.368 
L 205.498182 154.368 
L 201.890909 157.056 
L 194.676364 157.056 
L 191.069091 159.744 
L 191.069091 159.744 
L 183.854545 159.744 
L 180.247273 162.432 
L 180.247273 162.432 
L 173.032727 162.432 
L 169.425455 165.12 
L 169.425455 165.12 
L 162.210909 165.12 
L 158.603636 167.808 
L 158.603636 167.808 
L 151.389091 167.808 
L 147.781818 170.496 
L 147.781818 170.496 
L 140.567273 170.496 
L 136.96 173.184 
L 129.745455 173.184 
L 126.138182 175.872 
L 126.138182 175.872 
L 115.316364 175.872 
L 111.709091 178.56 
L 111.709091 178.56 
L 104.494545 178.56 
L 100.887273 181.248 
L 100.887273 181.248 
L 93.672727 181.248 
L 90.065455 183.936 
L 90.065455 183.936 
L 82.850909 183.936 
L 79.243636 186.624 
L 79.243636 186.624 
L 72.029091 186.624 
L 68.421818 189.312 
L 68.421818 189.312 
L 61.207273 189.312 
L 57.6 192 
L 57.6 192 
" clip-path="url(#pfc35e150a9)" style="fill: none; stroke: #ff0000; stroke-width: 0.2"/>
   </g>
   <g id="PathCollection_2">
    <path d="M 414.72 106.3872 
L 407.505455 106.3872 
L 403.898182 109.0752 
L 396.683636 109.0752 
L 393.076364 111.7632 
L 385.861818 111.7632 
L 382.254545 114.4512 
L 375.04 114.4512 
L 371.432727 117.1392 
L 364.218182 117.1392 
L 360.610909 119.8272 
L 353.396364 119.8272 
L 349.789091 122.5152 
L 338.967273 122.5152 
L 335.36 125.2032 
L 328.145455 125.2032 
L 324.538182 127.8912 
L 317.323636 127.8912 
L 313.716364 130.5792 
L 306.501818 130.5792 
L 302.894545 133.2672 
L 295.68 133.2672 
L 292.072727 135.9552 
L 284.858182 135.9552 
L 281.250909 138.6432 
L 274.036364 138.6432 
L 270.429091 141.3312 
L 263.214545 141.3312 
L 259.607273 144.0192 
L 252.392727 144.0192 
L 248.785455 146.7072 
L 241.570909 146.7072 
L 237.963636 149.3952 
L 227.141818 149.3952 
L 223.534545 152.0832 
L 216.32 152.0832 
L 212.712727 154.7712 
L 205.498182 154.7712 
L 201.890909 157.4592 
L 194.676364 157.4592 
L 191.069091 160.1472 
L 183.854545 160.1472 
L 180.247273 162.8352 
L 173.032727 162.8352 
L 169.425455 165.5232 
L 162.210909 165.5232 
L 158.603636 168.2112 
L 151.389091 168.2112 
L 147.781818 170.8992 
L 140.567273 170.8992 
L 136.96 173.5872 
L 129.745455 173.5872 
L 126.138182 176.2752 
L 115.316364 176.2752 
L 111.709091 178.9632 
L 104.494545 178.9632 
L 100.887273 181.6512 
L 93.672727 181.6512 
L 90.065455 184.3392 
L 82.850909 184.3392 
L 79.243636 187.0272 
L 72.029091 187.0272 
L 68.421818 189.7152 
L 61.207273 189.7152 
L 57.6 192.4032 
L 57.6 192.4032 
" clip-path="url(#pfc35e150a9)" style="fill: none; stroke: #ff0000; stroke-width: 0.2"/>
   </g>
   <g id="PathCollection_3">
    <path d="M 414.72 106.7904 
L 407.505455 106.7904 
L 403.898182 109.4784 
L 396.683636 109.4784 
L 393.076364 112.1664 
L 385.861818 112.1664 
L 382.254545 114.8544 
L 375.04 114.8544 
L 371.432727 117.5424 
L 364.218182 117.5424 
L 360.610909 120.2304 
L 353.396364 120.2304 
L 349.789091 122.9184 
L 338.967273 122.9184 
L 335.36 125.6064 
L 328.145455 125.6064 
L 324.538182 128.2944 
L 317.323636 128.2944 
L 313.716364 130.9824 
L 306.501818 130.9824 
L 302.894545 133.6704 
L 295.68 133.6704 
L 292.072727 136.3584 
L 284.858182 136.3584 
L 281.250909 139.0464 
L 274.036364 139.0464 
L 270.429091 141.7344 
L 263.214545 141.7344 
L 259.607273 144.4224 
L 252.392727 144.4224 
L 248.785455 147.1104 
L 241.570909 147.1104 
L 237.963636 149.7984 
L 227.141818 149.7984 
L 223.534545 152.4864 
L 216.32 152.4864 
L 212.712727 155.1744 
L 205.498182 155.1744 
L 201.890909 157.8624 
L 194.676364 157.8624 
L 191.069091 160.5504 
L 183.854545 160.5504 
L 180.247273 163.2384 
L 173.032727 163.2384 
L 169.425455 165.9264 
L 162.210909 165.9264 
L 158.603636 168.6144 
L 151.389091 168.6144 
L 147.781818 171.3024 
L 140.567273 171.3024 
L 136.96 173.9904 
L 129.745455 173.9904 
L 126.138182 176.6784 
L 115.316364 176.6784 
L 111.709091 179.3664 
L 104.494545 179.3664 
L 100.887273 182.0544 
L 93.672727 182.0544 
L 90.065455 184.7424 
L 82.850909 184.7424 
L 79.243636 187.4304 
L 72.029091 187.4304 
L 68.421818 190.1184 
L 61.207273 190.1184 
L 57.6 192.8064 
L 57.6 192.8064 
" clip-path="url(#pfc35e150a9)" style="fill: none; stroke: #ff0000; stroke-width: 0.2"/>
   </g>
   <g id="PathCollection_4">
    <path d="M 414.72 107.1936 
L 407.505455 107.1936 
L 403.898182 109.8816 
L 396.683636 109.8816 
L 393.076364 112.5696 
L 385.861818 112.5696 
L 382.254545 115.2576 
L 375.04 115.2576 
L 371.432727 117.9456 
L 364.218182 117.9456 
L 360.610909 120.6336 
L 353.396364 120.6336 
L 349.789091 123.3216 
L 338.967273 123.3216 
L 335.36 126.0096 
L 328.145455 126.0096 
L 324.538182 128.6976 
L 317.323636 128.6976 
L 313.716364 131.3856 
L 306.501818 131.3856 
L 302.894545 134.0736 
L 295.68 134.0736 
L 292.072727 136.7616 
L 284.858182 136.7616 
L 281.250909 139.4496 
L 274.036364 139.4496 
L 270.429091 142.1376 
L 263.214545 142.1376 
L 259.607273 144.8256 
L 252.392727 144.8256 
L 248.785455 147.5136 
L 241.570909 147.5136 
L 237.963636 150.2016 
L 227.141818 150.2016 
L 223.534545 152.8896 
L 216.32 152.8896 
L 212.712727 155.5776 
L 205.498182 155.5776 
L 201.890909 158.2656 
L 194.676364 158.2656 
L 191.069091 160.9536 
L 183.854545 160.9536 
L 180.247273 163.6416 
L 173.032727 163.6416 
L 169.425455 166.3296 
L 162.210909 166.3296 
L 158.603636 169.0176 
L 151.389091 169.0176 
L 147.781818 171.7056 
L 140.567273 171.7056 
L 136.96 174.3936 
L 129.745455 174.3936 
L 126.138182 177.0816 
L 115.316364 177.0816 
L 111.709091 179.7696 
L 104.494545 179.7696 
L 100.887273 182.4576 
L 93.672727 182.4576 
L 90.065455 185.1456 
L 82.850909 185.1456 
L 79.243636 187.8336 
L 72.029091 187.8336 
L 68.421818 190.5216 
L 61.207273 190.5216 
L 57.6 193.2096 
L 57.6 193.2096 
" clip-path="url(#pfc35e150a9)" style="fill: none; stroke: #ff0000; stroke-width: 0.2"/>
   </g>
   <g id="PathCollection_5">
    <path d="M 414.72 107.5968 
L 407.505455 107.5968 
L 403.898182 110.2848 
L 396.683636 110.2848 
L 393.076364 112.9728 
L 385.861818 112.9728 
L 382.254545 115.6608 
L 375.04 115.6608 
L 371.432727 118.3488 
L 364.218182 118.3488 
L 360.610909 121.0368 
L 353.396364 121.0368 
L 349.789091 123.7248 
L 338.967273 123.7248 
L 335.36 126.4128 
L 328.145455 126.4128 
L 324.538182 129.1008 
L 317.323636 129.1008 
L 313.716364 131.7888 
L 306.501818 131.7888 
L 302.894545 134.4768 
L 295.68 134.4768 
L 292.072727 137.1648 
L 284.858182 137.1648 
L 281.250909 139.8528 
L 274.036364 139.8528 
L 270.429091 142.5408 
L 263.214545 142.5408 
L 259.607273 145.2288 
L 252.392727 145.2288 
L 248.785455 147.9168 
L 241.570909 147.9168 
L 237.963636 150.6048 
L 227.141818 150.6048 
L 223.534545 153.2928 
L 216.32 153.2928 
L 212.712727 155.9808 
L 205.498182 155.9808 
L 201.890909 158.6688 
L 194.676364 158.6688 
L 191.069091 161.3568 
L 183.854545 161.3568 
L 180.247273 164.0448 
L 173.032727 164.0448 
L 169.425455 166.7328 
L 162.210909 166.7328 
L 158.603636 169.4208 
L 151.389091 169.4208 
L 147.781818 172.1088 
L 140.567273 172.1088 
L 136.96 174.7968 
L 129.745455 174.7968 
L 126.138182 177.4848 
L 115.316364 177.4848 
L 111.709091 180.1728 
L 104.494545 180.1728 
L 100.887273 182.8608 
L 93.672727 182.8608 
L 90.065455 185.5488 
L 82.850909 185.5488 
L 79.243636 188.2368 
L 72.029091 188.2368 
L 68.421818 190.9248 
L 61.207273 190.9248 
L 57.6 193.6128 
L 57.6 193.6128 
" clip-path="url(#pfc35e150a9)" style="fill: none; stroke: #ff0000; stroke-width: 0.2"/>
   </g>
   <g id="PathCollection_6">
    <path d="M 414.72 108 
L 407.505455 108 
L 403.898182 110.688 
L 396.683636 110.688 
L 393.076364 113.376 
L 385.861818 113.376 
L 382.254545 116.064 
L 375.04 116.064 
L 371.432727 118.752 
L 364.218182 118.752 
L 360.610909 121.44 
L 353.396364 121.44 
L 349.789091 124.128 
L 338.967273 124.128 
L 335.36 126.816 
L 328.145455 126.816 
L 324.538182 129.504 
L 317.323636 129.504 
L 313.716364 132.192 
L 306.501818 132.192 
L 302.894545 134.88 
L 295.68 134.88 
L 292.072727 137.568 
L 284.858182 137.568 
L 281.250909 140.256 
L 274.036364 140.256 
L 270.429091 142.944 
L 263.214545 142.944 
L 259.607273 145.632 
L 252.392727 145.632 
L 248.785455 148.32 
L 241.570909 148.32 
L 237.963636 151.008 
L 227.141818 151.008 
L 223.534545 153.696 
L 216.32 153.696 
L 212.712727 156.384 
L 205.498182 156.384 
L 201.890909 159.072 
L 194.676364 159.072 
L 191.069091 161.76 
L 183.854545 161.76 
L 180.247273 164.448 
L 173.032727 164.448 
L 169.425455 167.136 
L 162.210909 167.136 
L 158.603636 169.824 
L 151.389091 169.824 
L 147.781818 172.512 
L 140.567273 172.512 
L 136.96 175.2 
L 129.745455 175.2 
L 126.138182 177.888 
L 115.316364 177.888 
L 111.709091 180.576 
L 104.494545 180.576 
L 100.887273 183.264 
L 93.672727 183.264 
L 90.065455 185.952 
L 82.850909 185.952 
L 79.243636 188.64 
L 72.029091 188.64 
L 68.421818 191.328 
L 61.207273 191.328 
L 57.6 194.016 
L 57.6 194.016 
" clip-path="url(#pfc35e150a9)" style="fill: none; stroke: #ff0000; stroke-width: 0.2"/>
   </g>
   <g id="PathCollection_7">
    <path d="M 414.72 108.4032 
L 407.505455 108.4032 
L 403.898182 111.0912 
L 396.683636 111.0912 
L 393.076364 113.7792 
L 385.861818 113.7792 
L 382.254545 116.4672 
L 375.04 116.4672 
L 371.432727 119.1552 
L 364.218182 119.1552 
L 360.610909 121.8432 
L 353.396364 121.8432 
L 349.789091 124.5312 
L 338.967273 124.5312 
L 335.36 127.2192 
L 328.145455 127.2192 
L 324.538182 129.9072 
L 317.323636 129.9072 
L 313.716364 132.5952 
L 306.501818 132.5952 
L 302.894545 135.2832 
L 295.68 135.2832 
L 292.072727 137.9712 
L 284.858182 137.9712 
L 281.250909 140.6592 
L 274.036364 140.6592 
L 270.429091 143.3472 
L 263.214545 143.3472 
L 259.607273 146.0352 
L 252.392727 146.0352 
L 248.785455 148.7232 
L 241.570909 148.7232 
L 237.963636 151.4112 
L 227.141818 151.4112 
L 223.534545 154.0992 
L 216.32 154.0992 
L 212.712727 156.7872 
L 205.498182 156.7872 
L 201.890909 159.4752 
L 194.676364 159.4752 
L 191.069091 162.1632 
L 183.854545 162.1632 
L 180.247273 164.8512 
L 173.032727 164.8512 
L 169.425455 167.5392 
L 162.210909 167.5392 
L 158.603636 170.2272 
L 151.389091 170.2272 
L 147.781818 172.9152 
L 140.567273 172.9152 
L 136.96 175.6032 
L 129.745455 175.6032 
L 126.138182 178.2912 
L 115.316364 178.2912 
L 111.709091 180.9792 
L 104.494545 180.9792 
L 100.887273 183.6672 
L 93.672727 183.6672 
L 90.065455 186.3552 
L 82.850909 186.3552 
L 79.243636 189.0432 
L 72.029091 189.0432 
L 68.421818 191.7312 
L 61.207273 191.7312 
L 57.6 194.4192 
L 57.6 194.4192 
" clip-path="url(#pfc35e150a9)" style="fill: none; stroke: #ff0000; stroke-width: 0.2"/>
   </g>
   <g id="PathCollection_8"/>
  </g>
 </g>
 <defs>
  <clipPath id="pfc35e150a9">
   <rect x="57.6" y="41.472" width="357.12" height="266.112"/>
  </clipPath>
 </defs>
</svg>
