<?xml version="1.0" encoding="utf-8" standalone="no"?>
<!DOCTYPE svg PUBLIC "-//W3C//DTD SVG 1.1//EN"
  "http://www.w3.org/Graphics/SVG/1.1/DTD/svg11.dtd">
<svg xmlns:xlink="http://www.w3.org/1999/xlink" width="460.8pt" height="345.6pt" viewBox="0 0 460.8 345.6" xmlns="http://www.w3.org/2000/svg" version="1.1">
 <metadata>
  <rdf:RDF xmlns:dc="http://purl.org/dc/elements/1.1/" xmlns:cc="http://creativecommons.org/ns#" xmlns:rdf="http://www.w3.org/1999/02/22-rdf-syntax-ns#">
   <cc:Work>
    <dc:type rdf:resource="http://purl.org/dc/dcmitype/StillImage"/>
    <dc:date>2024-03-13T14:53:13.555187</dc:date>
    <dc:format>image/svg+xml</dc:format>
    <dc:creator>
     <cc:Agent>
      <dc:title>Matplotlib v3.7.3, https://matplotlib.org/</dc:title>
     </cc:Agent>
    </dc:creator>
   </cc:Work>
  </rdf:RDF>
 </metadata>
 <defs>
  <style type="text/css">*{stroke-linejoin: round; stroke-linecap: butt}</style>
 </defs>
 <g id="figure_1">
  <g id="patch_1">
   <path d="M 0 345.6 
L 460.8 345.6 
L 460.8 0 
L 0 0 
L 0 345.6 
z
" style="fill: none"/>
  </g>
  <g id="axes_1">
   <g id="PathCollection_1">
    <path d="M 299.287273 307.584 
L 299.287273 304.896 
L 295.68 302.208 
L 295.68 302.208 
L 295.68 299.52 
L 292.072727 296.832 
L 292.072727 296.832 
L 292.072727 294.144 
L 288.465455 291.456 
L 288.465455 291.456 
L 288.465455 288.768 
L 284.858182 286.08 
L 284.858182 286.08 
L 284.858182 283.392 
L 284.858182 280.704 
L 281.250909 278.016 
L 281.250909 278.016 
L 281.250909 275.328 
L 281.250909 272.64 
L 277.643636 269.952 
L 277.643636 269.952 
L 277.643636 267.264 
L 277.643636 264.576 
L 274.036364 261.888 
L 274.036364 261.888 
L 274.036364 259.2 
L 270.429091 256.512 
L 270.429091 256.512 
L 270.429091 253.824 
L 270.429091 251.136 
L 266.821818 248.448 
L 266.821818 248.448 
L 266.821818 245.76 
L 266.821818 243.072 
L 263.214545 240.384 
L 263.214545 240.384 
L 263.214545 237.696 
L 263.214545 235.008 
L 263.214545 232.32 
L 259.607273 229.632 
L 259.607273 229.632 
L 259.607273 226.944 
L 259.607273 224.256 
L 259.607273 221.568 
L 259.607273 218.88 
L 256 216.192 
L 256 216.192 
L 256 213.504 
L 256 210.816 
L 256 208.128 
L 256 205.44 
L 252.392727 202.752 
L 252.392727 202.752 
L 252.392727 200.064 
L 252.392727 197.376 
L 252.392727 194.688 
L 248.785455 192 
L 248.785455 192 
L 248.785455 189.312 
L 248.785455 186.624 
L 248.785455 183.936 
L 248.785455 181.248 
L 245.178182 178.56 
L 245.178182 178.56 
L 245.178182 175.872 
L 245.178182 173.184 
L 245.178182 170.496 
L 245.178182 167.808 
L 245.178182 167.808 
L 248.785455 165.12 
L 248.785455 162.432 
L 248.785455 159.744 
L 248.785455 157.056 
L 248.785455 154.368 
L 248.785455 151.68 
L 248.785455 148.992 
L 248.785455 146.304 
L 248.785455 143.616 
L 248.785455 140.928 
L 248.785455 138.24 
L 248.785455 135.552 
L 248.785455 132.864 
L 248.785455 130.176 
L 248.785455 127.488 
L 248.785455 124.8 
L 248.785455 122.112 
L 248.785455 119.424 
L 248.785455 116.736 
L 248.785455 114.048 
L 248.785455 111.36 
L 248.785455 108.672 
L 248.785455 108.672 
L 252.392727 105.984 
L 252.392727 103.296 
L 252.392727 100.608 
L 252.392727 97.92 
L 252.392727 95.232 
L 252.392727 92.544 
L 252.392727 89.856 
L 252.392727 87.168 
L 252.392727 84.48 
L 252.392727 81.792 
L 252.392727 79.104 
L 252.392727 76.416 
L 252.392727 73.728 
L 252.392727 71.04 
L 252.392727 68.352 
L 252.392727 65.664 
L 252.392727 62.976 
L 252.392727 60.288 
L 252.392727 57.6 
L 252.392727 54.912 
L 252.392727 52.224 
L 252.392727 52.224 
L 256 49.536 
L 256 46.848 
L 256 44.16 
L 256 41.472 
" clip-path="url(#pfc284bb8ff)" style="fill: none; stroke: #ff0000; stroke-width: 0.2"/>
   </g>
   <g id="PathCollection_2">
    <path d="M 298.746182 307.584 
L 298.746182 304.896 
L 295.68 302.6112 
L 295.138909 302.208 
L 295.138909 299.52 
L 292.072727 297.2352 
L 291.531636 296.832 
L 291.531636 294.144 
L 288.465455 291.8592 
L 287.924364 291.456 
L 287.924364 288.768 
L 284.858182 286.4832 
L 284.317091 286.08 
L 284.317091 283.392 
L 284.317091 280.704 
L 281.250909 278.4192 
L 280.709818 278.016 
L 280.709818 275.328 
L 280.709818 272.64 
L 277.643636 270.3552 
L 277.102545 269.952 
L 277.102545 267.264 
L 277.102545 264.576 
L 274.036364 262.2912 
L 273.495273 261.888 
L 273.495273 259.2 
L 270.429091 256.9152 
L 269.888 256.512 
L 269.888 253.824 
L 269.888 251.136 
L 266.821818 248.8512 
L 266.280727 248.448 
L 266.280727 245.76 
L 266.280727 243.072 
L 263.214545 240.7872 
L 262.673455 240.384 
L 262.673455 237.696 
L 262.673455 235.008 
L 262.673455 232.32 
L 259.607273 230.0352 
L 259.066182 229.632 
L 259.066182 226.944 
L 259.066182 224.256 
L 259.066182 221.568 
L 259.066182 218.88 
L 256 216.5952 
L 255.458909 216.192 
L 255.458909 213.504 
L 255.458909 210.816 
L 255.458909 208.128 
L 255.458909 205.44 
L 252.392727 203.1552 
L 251.851636 202.752 
L 251.851636 200.064 
L 251.851636 197.376 
L 251.851636 194.688 
L 248.785455 192.4032 
L 248.244364 192 
L 248.244364 189.312 
L 248.244364 186.624 
L 248.244364 183.936 
L 248.244364 181.248 
L 245.178182 178.9632 
L 244.637091 178.56 
L 244.637091 175.872 
L 244.637091 173.184 
L 244.637091 170.496 
L 244.637091 167.808 
L 245.178182 167.4048 
L 248.244364 165.12 
L 248.244364 162.432 
L 248.244364 159.744 
L 248.244364 157.056 
L 248.244364 154.368 
L 248.244364 151.68 
L 248.244364 148.992 
L 248.244364 146.304 
L 248.244364 143.616 
L 248.244364 140.928 
L 248.244364 138.24 
L 248.244364 135.552 
L 248.244364 132.864 
L 248.244364 130.176 
L 248.244364 127.488 
L 248.244364 124.8 
L 248.244364 122.112 
L 248.244364 119.424 
L 248.244364 116.736 
L 248.244364 114.048 
L 248.244364 111.36 
L 248.244364 108.672 
L 248.785455 108.2688 
L 251.851636 105.984 
L 251.851636 103.296 
L 251.851636 100.608 
L 251.851636 97.92 
L 251.851636 95.232 
L 251.851636 92.544 
L 251.851636 89.856 
L 251.851636 87.168 
L 251.851636 84.48 
L 251.851636 81.792 
L 251.851636 79.104 
L 251.851636 76.416 
L 251.851636 73.728 
L 251.851636 71.04 
L 251.851636 68.352 
L 251.851636 65.664 
L 251.851636 62.976 
L 251.851636 60.288 
L 251.851636 57.6 
L 251.851636 54.912 
L 251.851636 52.224 
L 252.392727 51.8208 
L 255.458909 49.536 
L 255.458909 46.848 
L 255.458909 44.16 
L 255.458909 41.472 
" clip-path="url(#pfc284bb8ff)" style="fill: none; stroke: #ff0000; stroke-width: 0.2"/>
   </g>
   <g id="PathCollection_3">
    <path d="M 298.205091 307.584 
L 298.205091 304.896 
L 295.68 303.0144 
L 294.597818 302.208 
L 294.597818 299.52 
L 292.072727 297.6384 
L 290.990545 296.832 
L 290.990545 294.144 
L 288.465455 292.2624 
L 287.383273 291.456 
L 287.383273 288.768 
L 284.858182 286.8864 
L 283.776 286.08 
L 283.776 283.392 
L 283.776 280.704 
L 281.250909 278.8224 
L 280.168727 278.016 
L 280.168727 275.328 
L 280.168727 272.64 
L 277.643636 270.7584 
L 276.561455 269.952 
L 276.561455 267.264 
L 276.561455 264.576 
L 274.036364 262.6944 
L 272.954182 261.888 
L 272.954182 259.2 
L 270.429091 257.3184 
L 269.346909 256.512 
L 269.346909 253.824 
L 269.346909 251.136 
L 266.821818 249.2544 
L 265.739636 248.448 
L 265.739636 245.76 
L 265.739636 243.072 
L 263.214545 241.1904 
L 262.132364 240.384 
L 262.132364 237.696 
L 262.132364 235.008 
L 262.132364 232.32 
L 259.607273 230.4384 
L 258.525091 229.632 
L 258.525091 226.944 
L 258.525091 224.256 
L 258.525091 221.568 
L 258.525091 218.88 
L 256 216.9984 
L 254.917818 216.192 
L 254.917818 213.504 
L 254.917818 210.816 
L 254.917818 208.128 
L 254.917818 205.44 
L 252.392727 203.5584 
L 251.310545 202.752 
L 251.310545 200.064 
L 251.310545 197.376 
L 251.310545 194.688 
L 248.785455 192.8064 
L 247.703273 192 
L 247.703273 189.312 
L 247.703273 186.624 
L 247.703273 183.936 
L 247.703273 181.248 
L 245.178182 179.3664 
L 244.096 178.56 
L 244.096 175.872 
L 244.096 173.184 
L 244.096 170.496 
L 244.096 167.808 
L 245.178182 167.0016 
L 247.703273 165.12 
L 247.703273 162.432 
L 247.703273 159.744 
L 247.703273 157.056 
L 247.703273 154.368 
L 247.703273 151.68 
L 247.703273 148.992 
L 247.703273 146.304 
L 247.703273 143.616 
L 247.703273 140.928 
L 247.703273 138.24 
L 247.703273 135.552 
L 247.703273 132.864 
L 247.703273 130.176 
L 247.703273 127.488 
L 247.703273 124.8 
L 247.703273 122.112 
L 247.703273 119.424 
L 247.703273 116.736 
L 247.703273 114.048 
L 247.703273 111.36 
L 247.703273 108.672 
L 248.785455 107.8656 
L 251.310545 105.984 
L 251.310545 103.296 
L 251.310545 100.608 
L 251.310545 97.92 
L 251.310545 95.232 
L 251.310545 92.544 
L 251.310545 89.856 
L 251.310545 87.168 
L 251.310545 84.48 
L 251.310545 81.792 
L 251.310545 79.104 
L 251.310545 76.416 
L 251.310545 73.728 
L 251.310545 71.04 
L 251.310545 68.352 
L 251.310545 65.664 
L 251.310545 62.976 
L 251.310545 60.288 
L 251.310545 57.6 
L 251.310545 54.912 
L 251.310545 52.224 
L 252.392727 51.4176 
L 254.917818 49.536 
L 254.917818 46.848 
L 254.917818 44.16 
L 254.917818 41.472 
" clip-path="url(#pfc284bb8ff)" style="fill: none; stroke: #ff0000; stroke-width: 0.2"/>
   </g>
   <g id="PathCollection_4">
    <path d="M 297.664 307.584 
L 297.664 304.896 
L 295.68 303.4176 
L 294.056727 302.208 
L 294.056727 299.52 
L 292.072727 298.0416 
L 290.449455 296.832 
L 290.449455 294.144 
L 288.465455 292.6656 
L 286.842182 291.456 
L 286.842182 288.768 
L 284.858182 287.2896 
L 283.234909 286.08 
L 283.234909 283.392 
L 283.234909 280.704 
L 281.250909 279.2256 
L 279.627636 278.016 
L 279.627636 275.328 
L 279.627636 272.64 
L 277.643636 271.1616 
L 276.020364 269.952 
L 276.020364 267.264 
L 276.020364 264.576 
L 274.036364 263.0976 
L 272.413091 261.888 
L 272.413091 259.2 
L 270.429091 257.7216 
L 268.805818 256.512 
L 268.805818 253.824 
L 268.805818 251.136 
L 266.821818 249.6576 
L 265.198545 248.448 
L 265.198545 245.76 
L 265.198545 243.072 
L 263.214545 241.5936 
L 261.591273 240.384 
L 261.591273 237.696 
L 261.591273 235.008 
L 261.591273 232.32 
L 259.607273 230.8416 
L 257.984 229.632 
L 257.984 226.944 
L 257.984 224.256 
L 257.984 221.568 
L 257.984 218.88 
L 256 217.4016 
L 254.376727 216.192 
L 254.376727 213.504 
L 254.376727 210.816 
L 254.376727 208.128 
L 254.376727 205.44 
L 252.392727 203.9616 
L 250.769455 202.752 
L 250.769455 200.064 
L 250.769455 197.376 
L 250.769455 194.688 
L 248.785455 193.2096 
L 247.162182 192 
L 247.162182 189.312 
L 247.162182 186.624 
L 247.162182 183.936 
L 247.162182 181.248 
L 245.178182 179.7696 
L 243.554909 178.56 
L 243.554909 175.872 
L 243.554909 173.184 
L 243.554909 170.496 
L 243.554909 167.808 
L 245.178182 166.5984 
L 247.162182 165.12 
L 247.162182 162.432 
L 247.162182 159.744 
L 247.162182 157.056 
L 247.162182 154.368 
L 247.162182 151.68 
L 247.162182 148.992 
L 247.162182 146.304 
L 247.162182 143.616 
L 247.162182 140.928 
L 247.162182 138.24 
L 247.162182 135.552 
L 247.162182 132.864 
L 247.162182 130.176 
L 247.162182 127.488 
L 247.162182 124.8 
L 247.162182 122.112 
L 247.162182 119.424 
L 247.162182 116.736 
L 247.162182 114.048 
L 247.162182 111.36 
L 247.162182 108.672 
L 248.785455 107.4624 
L 250.769455 105.984 
L 250.769455 103.296 
L 250.769455 100.608 
L 250.769455 97.92 
L 250.769455 95.232 
L 250.769455 92.544 
L 250.769455 89.856 
L 250.769455 87.168 
L 250.769455 84.48 
L 250.769455 81.792 
L 250.769455 79.104 
L 250.769455 76.416 
L 250.769455 73.728 
L 250.769455 71.04 
L 250.769455 68.352 
L 250.769455 65.664 
L 250.769455 62.976 
L 250.769455 60.288 
L 250.769455 57.6 
L 250.769455 54.912 
L 250.769455 52.224 
L 252.392727 51.0144 
L 254.376727 49.536 
L 254.376727 46.848 
L 254.376727 44.16 
L 254.376727 41.472 
" clip-path="url(#pfc284bb8ff)" style="fill: none; stroke: #ff0000; stroke-width: 0.2"/>
   </g>
   <g id="PathCollection_5">
    <path d="M 297.122909 307.584 
L 297.122909 304.896 
L 295.68 303.8208 
L 293.515636 302.208 
L 293.515636 299.52 
L 292.072727 298.4448 
L 289.908364 296.832 
L 289.908364 294.144 
L 288.465455 293.0688 
L 286.301091 291.456 
L 286.301091 288.768 
L 284.858182 287.6928 
L 282.693818 286.08 
L 282.693818 283.392 
L 282.693818 280.704 
L 281.250909 279.6288 
L 279.086545 278.016 
L 279.086545 275.328 
L 279.086545 272.64 
L 277.643636 271.5648 
L 275.479273 269.952 
L 275.479273 267.264 
L 275.479273 264.576 
L 274.036364 263.5008 
L 271.872 261.888 
L 271.872 259.2 
L 270.429091 258.1248 
L 268.264727 256.512 
L 268.264727 253.824 
L 268.264727 251.136 
L 266.821818 250.0608 
L 264.657455 248.448 
L 264.657455 245.76 
L 264.657455 243.072 
L 263.214545 241.9968 
L 261.050182 240.384 
L 261.050182 237.696 
L 261.050182 235.008 
L 261.050182 232.32 
L 259.607273 231.2448 
L 257.442909 229.632 
L 257.442909 226.944 
L 257.442909 224.256 
L 257.442909 221.568 
L 257.442909 218.88 
L 256 217.8048 
L 253.835636 216.192 
L 253.835636 213.504 
L 253.835636 210.816 
L 253.835636 208.128 
L 253.835636 205.44 
L 252.392727 204.3648 
L 250.228364 202.752 
L 250.228364 200.064 
L 250.228364 197.376 
L 250.228364 194.688 
L 248.785455 193.6128 
L 246.621091 192 
L 246.621091 189.312 
L 246.621091 186.624 
L 246.621091 183.936 
L 246.621091 181.248 
L 245.178182 180.1728 
L 243.013818 178.56 
L 243.013818 175.872 
L 243.013818 173.184 
L 243.013818 170.496 
L 243.013818 167.808 
L 245.178182 166.1952 
L 246.621091 165.12 
L 246.621091 162.432 
L 246.621091 159.744 
L 246.621091 157.056 
L 246.621091 154.368 
L 246.621091 151.68 
L 246.621091 148.992 
L 246.621091 146.304 
L 246.621091 143.616 
L 246.621091 140.928 
L 246.621091 138.24 
L 246.621091 135.552 
L 246.621091 132.864 
L 246.621091 130.176 
L 246.621091 127.488 
L 246.621091 124.8 
L 246.621091 122.112 
L 246.621091 119.424 
L 246.621091 116.736 
L 246.621091 114.048 
L 246.621091 111.36 
L 246.621091 108.672 
L 248.785455 107.0592 
L 250.228364 105.984 
L 250.228364 103.296 
L 250.228364 100.608 
L 250.228364 97.92 
L 250.228364 95.232 
L 250.228364 92.544 
L 250.228364 89.856 
L 250.228364 87.168 
L 250.228364 84.48 
L 250.228364 81.792 
L 250.228364 79.104 
L 250.228364 76.416 
L 250.228364 73.728 
L 250.228364 71.04 
L 250.228364 68.352 
L 250.228364 65.664 
L 250.228364 62.976 
L 250.228364 60.288 
L 250.228364 57.6 
L 250.228364 54.912 
L 250.228364 52.224 
L 252.392727 50.6112 
L 253.835636 49.536 
L 253.835636 46.848 
L 253.835636 44.16 
L 253.835636 41.472 
" clip-path="url(#pfc284bb8ff)" style="fill: none; stroke: #ff0000; stroke-width: 0.2"/>
   </g>
   <g id="PathCollection_6">
    <path d="M 296.581818 307.584 
L 296.581818 304.896 
L 295.68 304.224 
L 292.974545 302.208 
L 292.974545 299.52 
L 292.072727 298.848 
L 289.367273 296.832 
L 289.367273 294.144 
L 288.465455 293.472 
L 285.76 291.456 
L 285.76 288.768 
L 284.858182 288.096 
L 282.152727 286.08 
L 282.152727 283.392 
L 282.152727 280.704 
L 281.250909 280.032 
L 278.545455 278.016 
L 278.545455 275.328 
L 278.545455 272.64 
L 277.643636 271.968 
L 274.938182 269.952 
L 274.938182 267.264 
L 274.938182 264.576 
L 274.036364 263.904 
L 271.330909 261.888 
L 271.330909 259.2 
L 270.429091 258.528 
L 267.723636 256.512 
L 267.723636 253.824 
L 267.723636 251.136 
L 266.821818 250.464 
L 264.116364 248.448 
L 264.116364 245.76 
L 264.116364 243.072 
L 263.214545 242.4 
L 260.509091 240.384 
L 260.509091 237.696 
L 260.509091 235.008 
L 260.509091 232.32 
L 259.607273 231.648 
L 256.901818 229.632 
L 256.901818 226.944 
L 256.901818 224.256 
L 256.901818 221.568 
L 256.901818 218.88 
L 256 218.208 
L 253.294545 216.192 
L 253.294545 213.504 
L 253.294545 210.816 
L 253.294545 208.128 
L 253.294545 205.44 
L 252.392727 204.768 
L 249.687273 202.752 
L 249.687273 200.064 
L 249.687273 197.376 
L 249.687273 194.688 
L 248.785455 194.016 
L 246.08 192 
L 246.08 189.312 
L 246.08 186.624 
L 246.08 183.936 
L 246.08 181.248 
L 245.178182 180.576 
L 242.472727 178.56 
L 242.472727 175.872 
L 242.472727 173.184 
L 242.472727 170.496 
L 242.472727 167.808 
L 245.178182 165.792 
L 246.08 165.12 
L 246.08 162.432 
L 246.08 159.744 
L 246.08 157.056 
L 246.08 154.368 
L 246.08 151.68 
L 246.08 148.992 
L 246.08 146.304 
L 246.08 143.616 
L 246.08 140.928 
L 246.08 138.24 
L 246.08 135.552 
L 246.08 132.864 
L 246.08 130.176 
L 246.08 127.488 
L 246.08 124.8 
L 246.08 122.112 
L 246.08 119.424 
L 246.08 116.736 
L 246.08 114.048 
L 246.08 111.36 
L 246.08 108.672 
L 248.785455 106.656 
L 249.687273 105.984 
L 249.687273 103.296 
L 249.687273 100.608 
L 249.687273 97.92 
L 249.687273 95.232 
L 249.687273 92.544 
L 249.687273 89.856 
L 249.687273 87.168 
L 249.687273 84.48 
L 249.687273 81.792 
L 249.687273 79.104 
L 249.687273 76.416 
L 249.687273 73.728 
L 249.687273 71.04 
L 249.687273 68.352 
L 249.687273 65.664 
L 249.687273 62.976 
L 249.687273 60.288 
L 249.687273 57.6 
L 249.687273 54.912 
L 249.687273 52.224 
L 252.392727 50.208 
L 253.294545 49.536 
L 253.294545 46.848 
L 253.294545 44.16 
L 253.294545 41.472 
" clip-path="url(#pfc284bb8ff)" style="fill: none; stroke: #ff0000; stroke-width: 0.2"/>
   </g>
   <g id="PathCollection_7">
    <path d="M 296.040727 307.584 
L 296.040727 304.896 
L 295.68 304.6272 
L 292.433455 302.208 
L 292.433455 299.52 
L 292.072727 299.2512 
L 288.826182 296.832 
L 288.826182 294.144 
L 288.465455 293.8752 
L 285.218909 291.456 
L 285.218909 288.768 
L 284.858182 288.4992 
L 281.611636 286.08 
L 281.611636 283.392 
L 281.611636 280.704 
L 281.250909 280.4352 
L 278.004364 278.016 
L 278.004364 275.328 
L 278.004364 272.64 
L 277.643636 272.3712 
L 274.397091 269.952 
L 274.397091 267.264 
L 274.397091 264.576 
L 274.036364 264.3072 
L 270.789818 261.888 
L 270.789818 259.2 
L 270.429091 258.9312 
L 267.182545 256.512 
L 267.182545 253.824 
L 267.182545 251.136 
L 266.821818 250.8672 
L 263.575273 248.448 
L 263.575273 245.76 
L 263.575273 243.072 
L 263.214545 242.8032 
L 259.968 240.384 
L 259.968 237.696 
L 259.968 235.008 
L 259.968 232.32 
L 259.607273 232.0512 
L 256.360727 229.632 
L 256.360727 226.944 
L 256.360727 224.256 
L 256.360727 221.568 
L 256.360727 218.88 
L 256 218.6112 
L 252.753455 216.192 
L 252.753455 213.504 
L 252.753455 210.816 
L 252.753455 208.128 
L 252.753455 205.44 
L 252.392727 205.1712 
L 249.146182 202.752 
L 249.146182 200.064 
L 249.146182 197.376 
L 249.146182 194.688 
L 248.785455 194.4192 
L 245.538909 192 
L 245.538909 189.312 
L 245.538909 186.624 
L 245.538909 183.936 
L 245.538909 181.248 
L 245.178182 180.9792 
L 241.931636 178.56 
L 241.931636 175.872 
L 241.931636 173.184 
L 241.931636 170.496 
L 241.931636 167.808 
L 245.178182 165.3888 
L 245.538909 165.12 
L 245.538909 162.432 
L 245.538909 159.744 
L 245.538909 157.056 
L 245.538909 154.368 
L 245.538909 151.68 
L 245.538909 148.992 
L 245.538909 146.304 
L 245.538909 143.616 
L 245.538909 140.928 
L 245.538909 138.24 
L 245.538909 135.552 
L 245.538909 132.864 
L 245.538909 130.176 
L 245.538909 127.488 
L 245.538909 124.8 
L 245.538909 122.112 
L 245.538909 119.424 
L 245.538909 116.736 
L 245.538909 114.048 
L 245.538909 111.36 
L 245.538909 108.672 
L 248.785455 106.2528 
L 249.146182 105.984 
L 249.146182 103.296 
L 249.146182 100.608 
L 249.146182 97.92 
L 249.146182 95.232 
L 249.146182 92.544 
L 249.146182 89.856 
L 249.146182 87.168 
L 249.146182 84.48 
L 249.146182 81.792 
L 249.146182 79.104 
L 249.146182 76.416 
L 249.146182 73.728 
L 249.146182 71.04 
L 249.146182 68.352 
L 249.146182 65.664 
L 249.146182 62.976 
L 249.146182 60.288 
L 249.146182 57.6 
L 249.146182 54.912 
L 249.146182 52.224 
L 252.392727 49.8048 
L 252.753455 49.536 
L 252.753455 46.848 
L 252.753455 44.16 
L 252.753455 41.472 
" clip-path="url(#pfc284bb8ff)" style="fill: none; stroke: #ff0000; stroke-width: 0.2"/>
   </g>
   <g id="PathCollection_8"/>
  </g>
 </g>
 <defs>
  <clipPath id="pfc284bb8ff">
   <rect x="57.6" y="41.472" width="357.12" height="266.112"/>
  </clipPath>
 </defs>
</svg>
